<?xml version="1.0" encoding="utf-8"?>
<!-- Generator: Adobe Illustrator 26.3.1, SVG Export Plug-In . SVG Version: 6.00 Build 0)  -->
<svg version="1.1" id="Layer_1" xmlns="http://www.w3.org/2000/svg" xmlns:xlink="http://www.w3.org/1999/xlink" x="0px" y="0px"
	 viewBox="0 0 500 500" style="enable-background:new 0 0 500 500;" xml:space="preserve">
<style type="text/css">
	.st0{fill:#FFFFFF;}
</style>
<g>
	<path d="M499.98,253.5c0.43,23.7-6.4,53.27-16.83,82.11c-1.79,4.95-1.66,8.7,0.73,13.48c5.34,10.65,9.75,21.76,14.51,32.69
		c1.61,3.71,1.27,7.34-1.58,10.21c-10.42,10.51-20.26,21.76-31.67,31.09c-15.29,12.5-32.65,21.95-51.78,27.67
		c-2.39,0.71-5,1.87-7.3,1.51c-8.51-1.33-14.62,3.22-21.04,7.48c-49.71,32.91-104.64,44.54-163.47,38.91
		c-30.77-2.95-59.26-13.69-86.64-27.67c-3.57-1.82-8.17-3.45-11.91-2.83c-23.43,3.89-42.58-5-59.61-19.53
		c-27.47-23.45-45.77-52.92-55.66-87.6c-3.79-13.28-4.31-26.53,0.26-39.8c0.7-2.02,0.79-4.59,0.22-6.65
		c-10.45-37.99-10.64-76.06-2.2-114.49c13.58-61.82,45.4-112.08,95.29-150.83c29.85-23.18,64.22-36.31,101.14-43.6
		c36.53-7.2,72.87-8.25,109.14,1.19c40.64,10.58,77.24,28.56,108.36,57.34c28.16,26.04,49.1,56.82,63.23,92.25
		C494.65,185.22,499.82,215.31,499.98,253.5z M218.12,254.86c0.12-0.17,0.24-0.34,0.36-0.5c15.43,2.15,30.8,5.2,46.31,6.21
		c18.83,1.23,37.78,0.85,56.68,0.83c1.95,0,4.73-1.81,5.71-3.57c12.7-22.66,20.16-47.03,22.48-72.86c0.33-3.69-0.74-8.3-2.86-11.3
		c-15.94-22.64-34.52-43-55.5-61.06c-3.14-2.7-7.87-5.18-11.8-5.08c-30.26,0.82-60.14,4.2-87.92,17.47
		c-3.24,1.55-6.93,4.48-8.12,7.63c-9.97,26.31-19.16,52.92-22.63,81.02c-0.44,3.57,0.73,8.2,2.86,11.07
		c8.5,11.45,17.69,22.38,26.58,33.54c8.92,11.19,19.91,19.04,34.19,21.99c7.18,1.49,14.19,3.72,21.36,5.23
		c9.45,1.99,18.95,3.83,28.67,1.32c11.02-2.85,22.11-5.43,33.11-8.32c2.88-0.76,5.55-2.27,8.32-3.44c-0.13-0.49-0.25-0.98-0.38-1.47
		c-14.54,4.2-28.78,2.57-42.83-1.75C254.5,266.22,236.32,260.51,218.12,254.86z M83.03,242.89c-0.35-0.09-0.7-0.18-1.05-0.27
		c2.01-8.77,3.46-17.72,6.18-26.27c3.46-10.9,9.75-12.65,18.75-5.9c6.01,4.51,12,9.1,17.59,14.1c4.02,3.6,7.36,3.97,12.73,2.26
		c11.03-3.52,16.74-8.85,19.42-21.35c5.28-24.57,13.72-48.49,21.21-72.56c1.5-4.83,2.13-8.73-1.66-12.66
		c-11.23-11.66-22.26-23.5-33.52-35.12c-4.49-4.63-9.7-6.66-16.17-3.41c-3.06,1.54-6.61,2.1-9.87,3.28
		c-22.48,8.14-42.62,19.74-58.41,38.19c-10.92,12.76-17.25,27.73-22.29,43.4c-4.76,14.8-7.55,29.96-5.69,45.53
		c0.47,3.96,1.93,8.78,4.68,11.32c12.71,11.74,25.99,22.87,39.24,34.01c1.27,1.07,4.56,1.65,5.44,0.85c1.83-1.67,3.29-4.3,3.77-6.76
		C83.92,248.77,83.2,245.78,83.03,242.89z M330.86,38.88c-10.67,1.49-18.96,2.24-27.01,4.01c-2.59,0.57-6.14,3.56-6.6,5.95
		c-2.87,14.93-4.81,30.03-7.46,45.01c-0.8,4.53,0.16,7.4,3.62,10.55c21.72,19.75,42.09,40.73,59.14,64.77
		c1.47,2.07,5.06,3.41,7.79,3.67c8.83,0.84,17.76,0.64,26.58,1.52c13.62,1.35,27.2,3.2,40.78,4.96c4.62,0.6,7.86-0.33,9.03-5.48
		c2.68-11.8,5.85-23.49,8.23-35.35c0.8-4,1.04-8.95-0.61-12.46c-9.5-20.31-20.26-40.03-37.02-55.43
		c-10.57-9.71-20.7-20.73-35.48-24.07C357.62,43.29,343.15,41.13,330.86,38.88z M332.7,314.02c-38.21-0.58-75.93,3.06-112.59,14.46
		c-2.18,0.68-4.71,2.7-5.59,4.74c-5.53,12.9-10.81,25.91-15.83,39.01c-2.85,7.44-2.02,8.81,5.42,12.09c1.22,0.54,2.55,1,3.86,1.16
		c10.52,1.25,21.1,3.73,31.56,3.34c25.62-0.97,51.3-2.38,76.76-5.34c19.08-2.21,37.88-7.01,56.74-10.94
		c2.02-0.42,4.56-2.43,5.27-4.3c2.52-6.65,4.66-13.48,6.27-20.4c0.58-2.51,0.14-6.12-1.35-8.09c-6.25-8.26-12.97-16.17-19.78-23.98
		c-1.05-1.2-3.45-1.65-5.25-1.69C349.69,313.92,341.19,314.02,332.7,314.02z M72.85,286.71c0-4.37-0.26-7.61,0.06-10.78
		c0.47-4.69-1.55-7.44-5.05-10.62c-13.54-12.32-26.64-25.11-39.64-38c-3.46-3.43-6.57-3.37-9.49-0.41
		c-6.2,6.3-11.26,13.62-11.77,22.66c-1.14,20.12,1.92,39.79,7.61,59.53c4.34-5.04,8.4-9.73,12.66-14.67
		c1.65,1.84,2.76,3.07,3.86,4.3c-16.61,16.69-23,38.96-16.35,61.77c10.58,36.27,31.11,66.14,61.24,88.99
		c12.37,9.38,26.56,15.72,42.64,13.09c10.79-1.77,21.29-5.32,31.94-8.02c3.68-0.93,7.41-1.7,11.12-2.54
		c0.17,0.59,0.33,1.17,0.5,1.76c-5.78,2.64-11.55,5.28-18.05,8.25c26.27,10.4,52.83,14.95,80.32,11.17
		c4.25-0.58,8.65-5.47,11.51-9.42c3.56-4.93,5.49-11,8.31-16.49c2.1-4.09,0.88-6.53-2.78-9.11c-6.45-4.54-12.82-9.32-18.51-14.75
		c-3.6-3.43-6.16-3.52-10.46-1.47c-19.49,9.33-38.99,18.67-58.88,27.11c-8.95,3.8-18.65,6.6-28.28,7.9
		c-17.06,2.29-31.4-5.49-43.94-15.98c-27.73-23.17-47.16-52.34-59.31-86.21c-5.39-15.03-5.43-30.38,5.02-43.44
		c5.67-7.09,13.37-12.6,20.32-18.65c3.9-3.4,8.46-3.41,13.07-1.42c4.38,1.9,8.73,3.89,14.38,6.42c-0.98-2.92-1.04-5.62-2.3-6.44
		c-10.65-6.88-21.19-14.81-36.4-6.59C50.61,265.77,61.44,278.2,72.85,286.71z M474.18,194.57c2.82,18.4,1.18,48.26-3.95,72.84
		c-1.26,6.02-4.81,12.67-3.29,17.86c1.58,5.39,7.94,9.43,12.39,13.89c1.27,1.27,3.73,3.06,4.61,2.61c1.51-0.77,2.73-3,3.17-4.84
		c12.59-52.33,4.97-102.62-16.26-151.27c-2.14-4.9-7.13-8.87-11.52-12.37c-3.8-3.04-5.97-1.35-6.97,3.4
		c-2.93,13.93-5.75,27.91-9.46,41.64c-1.87,6.94-1.25,12.68,3.66,19.05c4.94-8.35,9.74-16.19,14.26-24.2
		c3.95-7.01,7.12-7.74,12.82-1.98c6.57,6.63,10.87,14.75,11.71,23.98c0.54,5.94-1.73,11.74-5.82,16.59
		c-0.32-3.28-0.05-6.43,0.63-9.48c1.89-8.44-0.43-14-7.89-18.37c-5.59-3.27-7.98-2.75-11.35,2.84
		c-16.51,27.39-37.15,51.18-62.51,70.73c-18.67,14.4-39.08,25.38-62.25,30.97c-22.12,5.33-44.43,5.06-66.86,3.37
		c-49.32-3.73-94.02-20.52-135.03-47.69c-10.3-6.82-20.54-13.74-30.92-20.42c-4.04-2.6-8.45-2.9-10.91,2.02
		c-5.14,10.27-5.46,21.02-2.64,32.61c4.86-6.7,9.16-12.61,14.03-19.32c5.96,3.66,12.4,7.8,19.01,11.64
		c13.66,7.93,26.99,16.58,41.21,23.33c26.69,12.67,55.34,19.31,84.34,24.24c25.03,4.25,50.26,7.79,75.44,2.04
		C388.16,285.6,440.34,253.39,474.18,194.57z M386.26,367.01c4.19-2.25,8.13-4.17,11.87-6.42c16.2-9.75,32.29-19.69,48.53-29.38
		c6.51-3.89,8.66-3.33,13.21,2.53c9.55,12.29,14.48,26.58,18.19,41.47c2.58,10.37,0.02,18.85-8.65,24.95
		c-17.63,12.42-35.48,24.54-53.29,36.72c-1.01,0.69-2.41,0.81-3.68,1.22c-2.51-6.22-4.91-12.09-7.26-17.98
		c-5.03-12.63-13.29-22.09-26.56-26.3c-1.59-0.51-4.7,0.19-5.52,1.4c-4.63,6.86-8.95,13.95-12.96,21.19c-0.89,1.61-1,4.85,0.04,6.14
		c5.16,6.44,10.52,12.79,16.45,18.5c2.39,2.3,6.43,2.89,11.11,4.84c-2.37-10.64-0.83-18.55,4.39-25.83
		c0.94,4.04,0.87,7.96,0.22,11.79c-1.79,10.69,3.28,15.99,13.95,14.17c3.41-0.58,6.88-1.21,10.11-2.39
		c26.66-9.74,49.06-25.71,68.01-46.69c5.14-5.7,6.64-11.84,3.62-19.07c-5.34-12.79-10.75-25.56-15.69-38.51
		c-1.78-4.66-2.27-9.8-3.35-14.72c0.62-0.13,1.24-0.27,1.86-0.4c1.66,2.96,3.31,5.92,5.1,9.11c9.67-15.47,4.29-23.38-11.86-38.22
		c-2.96,9.02-5.99,17.93-8.78,26.92c-1.11,3.58-2.62,4.9-6.64,3.73c-5.73-1.66-11.66-2.67-17.56-3.64c-2.8-0.46-6.3-1.26-8.47-0.07
		c-9.3,5.07-18.28,10.73-27.23,16.41c-1.46,0.92-2.69,2.85-3.16,4.55C390.17,350.62,388.41,358.29,386.26,367.01z M367.19,393.34
		c-0.36-0.5-0.72-0.99-1.07-1.49c-47.54,0.53-95.24,0.12-139.49,24.76c7.63,6.12,14.8,12.22,22.39,17.74
		c2.49,1.82,6.06,2.95,9.17,3.03c29.71,0.74,58.44-4,85.67-16.34c2.44-1.11,5.41-2.11,6.89-4.08
		C356.49,409.29,361.75,401.24,367.19,393.34z M124.96,411.64c-2.92-7.7-6.52-14.01-7.62-20.74c-2.77-16.88-4.48-33.94-6.44-50.95
		c-0.5-4.3-0.76-8.64-5-10.97c-8.6-4.73-17.14-9.64-26.07-13.65c-5.2-2.34-11.11-3.09-17.93-4.88c0.66,4.51,0.76,7.21,1.48,9.73
		c3.51,12.2,6.56,24.58,10.97,36.45c6.56,17.66,14.09,34.95,21.29,52.37c2,4.83,5.75,7.37,11.01,6.48
		C113.24,414.34,119.75,412.75,124.96,411.64z M354.08,308.86c2.76,0,5.45-0.02,8.14,0c26.3,0.24,52.46,1.88,78.31,7.23
		c1.4,0.29,4.33-1.49,4.81-2.89c3.63-10.71,7.65-21.4,9.95-32.42c2.39-11.47,1.7-23.23-1.37-33.76
		c-17.42,10.54-34.62,20.96-51.75,31.33c6.88,5.92,8.74,11.15,5.99,17.23c-2.53,5.59-8.52,9.11-14.46,8.52
		c-7.87-0.79-11.79-5.16-13.79-15.63c-7.66,3.82-15.11,7.9-22.87,11.25C352.56,301.65,351.79,304.09,354.08,308.86z M52.57,108.96
		c0.67,0.78,1.33,1.55,2,2.33c3.56-1.86,7.59-3.16,10.62-5.66c19.64-16.22,41.55-27.92,66.19-34.57c2.3-0.62,5-1.84,6.32-3.65
		c13.82-18.93,31.78-32.33,53.45-41.06c5.13-2.07,5.85-4.91,1.81-8.57c-1.93-1.74-6.09-2.57-8.66-1.83
		C135.69,30.08,95.15,56.79,62.2,95.03C58.54,99.28,55.76,104.3,52.57,108.96z M93.02,414.7c-15.18-32.63-28.78-65.35-35.94-100.39
		c-16.85,5.48-27.94,15.23-20.69,34.52c8.11,21.56,18.33,41.96,29.99,61.73c8.96,15.19,12.32,15.79,26.25,4.71
		C92.78,415.16,92.85,414.96,93.02,414.7z M207.5,296.96c3.84,10.12,2.07,16.64-5.37,21.03c-6,3.54-15.49,2.15-19.24-3.83
		c-2.06-3.28-3.33-8.11-2.61-11.78c0.75-3.82,4.34-7.08,6.61-10.48c-6.22-1.98-12.9-3.91-19.43-6.24
		c-6.69-2.39-13.23-5.17-19.92-7.81c-1.83,18.53,14.44,52.91,30.2,64.08c24.54-18.39,53.41-24.5,82.94-28.11c0-2.58,0-4.58,0-6.67
		C242.91,303.74,225.52,300.41,207.5,296.96z M361.43,34.82c0.15-0.36,0.3-0.72,0.44-1.08c-1.77-1.31-3.36-3.02-5.33-3.86
		c-7.62-3.25-15.29-6.42-23.07-9.25c-23.79-8.68-48.74-11.41-73.72-13.53c-17.75-1.51-35.48-0.68-52.89,3.76
		c-2.92,0.74-5.84,1.37-5.04,5.48c0.66,3.43,2.64,4.75,6.18,4.45c5.76-0.49,11.57-0.48,17.33-1.01c19.01-1.75,37.37,0.19,54.61,8.98
		c4.12,2.1,8.16,4.39,12.39,6.24c2,0.87,4.39,1.34,6.57,1.26c16.91-0.63,33.82-1.51,50.73-2.12C353.56,34,357.5,34.58,361.43,34.82z
		 M115.4,336.75c1.41,21.27,3.08,40.59,8.09,59.4c2.52,9.43,7.75,13.21,17.5,12.31c6.08-0.56,11.98-2.99,16.84-4.28
		c-2.64-13.95-4.91-26.19-7.34-38.4c-0.35-1.78-1-4.03-2.3-5.02C137.81,352.94,127.23,345.36,115.4,336.75z M447.49,350.04
		c-9.15-7.01-9.39-7.31-16.92-1.2c-10.03,8.14-19.68,16.75-29.42,25.23c-4.81,4.19-6.42,17.18-2.86,22.48
		c0.49,0.73,1.39,1.28,2.22,1.68c8.17,3.96,13.18,2.69,18.36-4.58c0.9-1.26,1.88-2.45,2.72-3.75
		C430.19,376.7,438.76,363.48,447.49,350.04z M186.25,421.2c-2.95-3.87-5.12-6.55-7.09-9.36c-2.77-3.94-14.78-5.94-19.33-4.27
		c-6.72,2.48-13.92,5.57-20.78,5.29c-7.38-0.3-12.36,3.21-18.52,6.39c10.42,6,20.88,11.65,31.8,16.24
		c3.23,1.36,8.28,0.84,11.53-0.78C171.54,430.9,178.64,425.9,186.25,421.2z M414.03,406.18c5.68,6.13,7.03,6.8,14.35,1.6
		c11.75-8.36,23.03-17.38,34.29-26.39c1.37-1.09,2.58-4.5,1.89-5.69c-4.18-7.22-8.94-14.11-14-21.88
		C438.52,372.29,429.28,390.99,414.03,406.18z M81.28,428.03c2.58,1.61,4.83,3.52,7.43,4.55c11.29,4.5,22.84,8.36,33.98,13.19
		c10.44,4.52,18.51-0.3,27.59-4.97c-7.04-3.5-13.46-6.48-19.68-9.83c-9.7-5.22-18.19-13.5-30.6-11.56
		c-0.52,0.08-1.12-0.43-1.67-0.41c-0.92,0.03-1.97,0.03-2.72,0.46C90.97,422.14,86.4,424.95,81.28,428.03z M156.11,365.81
		c-0.49,0.27-0.98,0.54-1.48,0.81c2.49,10.2,4.97,20.41,7.5,30.61c0.96,3.89,3.49,5.7,7.55,5.68c13.87-0.05,26.75-4.47,39.66-8.07
		C191.42,385.07,173.76,375.44,156.11,365.81z M250.84,492.14c-6.63-5.44-13.71-10.67-22.17-11.12
		c-12.87-0.68-25.83,0.21-38.75,0.47c-1.35,0.03-2.69,0.24-4.03,0.37c-0.02,0.52-0.04,1.03-0.05,1.55
		C207,489.1,228.28,494.09,250.84,492.14z M182.57,407.4c4.28,9.45,8.95,12.75,15.2,9.37c8.89-4.8,17.3-10.51,26.11-15.96
		c-2.42-3.27-4.83-4.5-8.96-3.14C204.33,401.18,193.56,404.14,182.57,407.4z M420.93,416.66c1.11,3.95,2.8,5.98,6.53,3.1
		c12.17-9.4,24.36-18.79,36.39-28.37c1.39-1.11,1.86-3.37,2.75-5.09C451.59,396.9,438.69,409.84,420.93,416.66z M363.53,383.04
		c7.09,2.6,12.58,4.89,18.26,6.53c1.73,0.5,5.26-0.23,5.75-1.35c1.72-3.97,2.47-8.35,3.92-13.81
		C381.44,377.51,373.25,380.04,363.53,383.04z"/>
	<path class="st0" d="M218.12,254.86c18.2,5.65,36.39,11.36,54.61,16.95c14.05,4.31,28.29,5.95,42.83,1.75
		c0.13,0.49,0.25,0.98,0.38,1.47c-2.77,1.17-5.45,2.68-8.32,3.44c-11,2.9-22.09,5.48-33.11,8.32c-9.72,2.51-19.21,0.66-28.67-1.32
		c-7.17-1.51-14.19-3.74-21.36-5.23c-14.28-2.96-25.27-10.81-34.19-21.99c-8.89-11.16-18.09-22.09-26.58-33.54
		c-2.13-2.87-3.3-7.5-2.86-11.07c3.47-28.1,12.66-54.71,22.63-81.02c1.19-3.15,4.88-6.08,8.12-7.63
		c27.77-13.27,57.66-16.65,87.92-17.47c3.92-0.11,8.66,2.38,11.8,5.08c20.99,18.07,39.56,38.43,55.5,61.06
		c2.11,3,3.19,7.61,2.86,11.3c-2.33,25.83-9.78,50.2-22.48,72.86c-0.99,1.76-3.76,3.57-5.71,3.57c-18.9,0.02-37.85,0.4-56.68-0.83
		c-15.51-1.01-30.88-4.06-46.31-6.21C218.36,254.52,218.24,254.69,218.12,254.86z"/>
	<path class="st0" d="M83.03,242.89c0.17,2.89,0.89,5.88,0.36,8.63c-0.48,2.46-1.93,5.09-3.77,6.76c-0.88,0.8-4.18,0.22-5.44-0.85
		c-13.25-11.15-26.52-22.28-39.24-34.01c-2.75-2.54-4.21-7.36-4.68-11.32c-1.86-15.57,0.92-30.73,5.69-45.53
		c5.04-15.66,11.38-30.64,22.29-43.4c15.79-18.45,35.93-30.05,58.41-38.19c3.26-1.18,6.81-1.74,9.87-3.28
		c6.47-3.25,11.68-1.22,16.17,3.41c11.26,11.62,22.29,23.46,33.52,35.12c3.79,3.94,3.16,7.84,1.66,12.66
		c-7.49,24.07-15.93,47.98-21.21,72.56c-2.69,12.5-8.39,17.82-19.42,21.35c-5.37,1.71-8.71,1.34-12.73-2.26
		c-5.59-5.01-11.58-9.59-17.59-14.1c-8.99-6.75-15.29-4.99-18.75,5.9c-2.71,8.55-4.17,17.5-6.18,26.27
		C82.32,242.71,82.68,242.8,83.03,242.89z"/>
	<path class="st0" d="M330.86,38.88c12.29,2.25,26.76,4.41,41,7.64c14.78,3.34,24.9,14.36,35.48,24.07
		c16.77,15.4,27.52,35.12,37.02,55.43c1.64,3.52,1.41,8.46,0.61,12.46c-2.37,11.86-5.54,23.55-8.23,35.35
		c-1.17,5.15-4.41,6.08-9.03,5.48c-13.58-1.77-27.16-3.61-40.78-4.96c-8.82-0.88-17.75-0.68-26.58-1.52
		c-2.74-0.26-6.33-1.6-7.79-3.67c-17.06-24.04-37.43-45.02-59.14-64.77c-3.46-3.14-4.42-6.01-3.62-10.55
		c2.66-14.97,4.59-30.08,7.46-45.01c0.46-2.39,4.01-5.38,6.6-5.95C311.91,41.11,320.19,40.37,330.86,38.88z"/>
	<path class="st0" d="M332.7,314.02c8.5,0,16.99-0.09,25.49,0.08c1.79,0.04,4.2,0.49,5.25,1.69c6.81,7.81,13.53,15.72,19.78,23.98
		c1.49,1.97,1.93,5.58,1.35,8.09c-1.61,6.92-3.75,13.75-6.27,20.4c-0.71,1.87-3.25,3.87-5.27,4.3
		c-18.86,3.93-37.65,8.73-56.74,10.94c-25.46,2.95-51.13,4.37-76.76,5.34c-10.47,0.39-21.04-2.09-31.56-3.34
		c-1.32-0.16-2.64-0.62-3.86-1.16c-7.43-3.28-8.27-4.65-5.42-12.09c5.03-13.1,10.3-26.12,15.83-39.01c0.87-2.04,3.4-4.06,5.59-4.74
		C256.76,317.07,294.49,313.44,332.7,314.02z"/>
	<path class="st0" d="M72.85,286.71c-11.42-8.51-22.25-20.94-36.65-2.05c15.21-8.21,25.75-0.28,36.4,6.59
		c1.27,0.82,1.32,3.52,2.3,6.44c-5.66-2.53-10-4.52-14.38-6.42c-4.6-1.99-9.16-1.98-13.07,1.42c-6.94,6.05-14.64,11.55-20.32,18.65
		c-10.45,13.06-10.41,28.41-5.02,43.44c12.15,33.87,31.57,63.04,59.31,86.21c12.55,10.48,26.88,18.27,43.94,15.98
		c9.63-1.29,19.33-4.1,28.28-7.9c19.88-8.44,39.39-17.78,58.88-27.11c4.3-2.06,6.86-1.96,10.46,1.47
		c5.69,5.42,12.07,10.21,18.51,14.75c3.67,2.58,4.89,5.02,2.78,9.11c-2.82,5.48-4.75,11.56-8.31,16.49
		c-2.86,3.96-7.26,8.84-11.51,9.42c-27.49,3.77-54.05-0.78-80.32-11.17c6.49-2.97,12.27-5.61,18.05-8.25
		c-0.17-0.59-0.33-1.17-0.5-1.76c-3.71,0.84-7.44,1.6-11.12,2.54c-10.65,2.7-21.14,6.26-31.94,8.02
		c-16.08,2.63-30.27-3.7-42.64-13.09c-30.13-22.86-50.67-52.72-61.24-88.99c-6.65-22.81-0.26-45.08,16.35-61.77
		c-1.1-1.23-2.21-2.46-3.86-4.3c-4.26,4.94-8.31,9.64-12.66,14.67c-5.69-19.74-8.75-39.41-7.61-59.53
		c0.51-9.04,5.57-16.36,11.77-22.66c2.91-2.96,6.03-3.02,9.49,0.41c13,12.89,26.1,25.69,39.64,38c3.49,3.18,5.52,5.93,5.05,10.62
		C72.6,279.11,72.85,282.34,72.85,286.71z"/>
	<path class="st0" d="M474.18,194.57c-33.83,58.82-86.01,91.03-150.34,105.71c-25.19,5.75-50.42,2.21-75.44-2.04
		c-29.01-4.93-57.65-11.57-84.34-24.24c-14.23-6.75-27.55-15.41-41.21-23.33c-6.61-3.84-13.05-7.98-19.01-11.64
		c-4.87,6.7-9.17,12.62-14.03,19.32c-2.82-11.59-2.5-22.35,2.64-32.61c2.46-4.92,6.87-4.62,10.91-2.02
		c10.39,6.68,20.63,13.6,30.92,20.42c41.02,27.17,85.71,43.96,135.03,47.69c22.43,1.7,44.74,1.96,66.86-3.37
		c23.17-5.58,43.58-16.57,62.25-30.97c25.36-19.55,45.99-43.34,62.51-70.73c3.37-5.59,5.76-6.11,11.35-2.84
		c7.45,4.36,9.77,9.93,7.89,18.37c-0.68,3.05-0.95,6.19-0.63,9.48c4.1-4.86,6.37-10.65,5.82-16.59
		c-0.84-9.23-5.14-17.35-11.71-23.98c-5.71-5.76-8.87-5.03-12.82,1.98c-4.51,8.01-9.32,15.86-14.26,24.2
		c-4.91-6.37-5.53-12.11-3.66-19.05c3.71-13.73,6.53-27.71,9.46-41.64c1-4.75,3.17-6.44,6.97-3.4c4.39,3.5,9.38,7.48,11.52,12.37
		c21.23,48.65,28.85,98.94,16.26,151.27c-0.44,1.83-1.66,4.07-3.17,4.84c-0.89,0.45-3.35-1.34-4.61-2.61
		c-4.45-4.46-10.82-8.5-12.39-13.89c-1.52-5.19,2.04-11.84,3.29-17.86C475.35,242.83,477,212.97,474.18,194.57z"/>
	<path class="st0" d="M386.26,367.01c2.15-8.72,3.91-16.39,5.99-23.98c0.47-1.7,1.7-3.63,3.16-4.55
		c8.95-5.67,17.93-11.34,27.23-16.41c2.18-1.19,5.68-0.39,8.47,0.07c5.9,0.97,11.83,1.98,17.56,3.64c4.02,1.17,5.53-0.15,6.64-3.73
		c2.79-8.99,5.82-17.9,8.78-26.92c16.15,14.84,21.53,22.75,11.86,38.22c-1.78-3.18-3.44-6.15-5.1-9.11
		c-0.62,0.13-1.24,0.27-1.86,0.4c1.08,4.92,1.58,10.06,3.35,14.72c4.94,12.95,10.34,25.72,15.69,38.51
		c3.02,7.23,1.52,13.37-3.62,19.07c-18.95,20.99-41.35,36.95-68.01,46.69c-3.23,1.18-6.7,1.81-10.11,2.39
		c-10.68,1.82-15.75-3.48-13.95-14.17c0.64-3.83,0.72-7.75-0.22-11.79c-5.22,7.28-6.76,15.18-4.39,25.83
		c-4.68-1.95-8.72-2.54-11.11-4.84c-5.93-5.71-11.29-12.06-16.45-18.5c-1.03-1.29-0.93-4.53-0.04-6.14
		c4.01-7.24,8.33-14.33,12.96-21.19c0.82-1.21,3.93-1.9,5.52-1.4c13.28,4.22,21.53,13.67,26.56,26.3
		c2.34,5.89,4.74,11.76,7.26,17.98c1.28-0.41,2.67-0.53,3.68-1.22c17.8-12.18,35.65-24.3,53.29-36.72
		c8.67-6.1,11.23-14.59,8.65-24.95c-3.71-14.89-8.64-29.18-18.19-41.47c-4.55-5.86-6.7-6.41-13.21-2.53
		c-16.24,9.69-32.33,19.62-48.53,29.38C394.39,362.84,390.45,364.76,386.26,367.01z"/>
	<path class="st0" d="M367.19,393.34c-5.44,7.91-10.7,15.95-16.46,23.62c-1.48,1.98-4.45,2.98-6.89,4.08
		c-27.23,12.33-55.96,17.07-85.67,16.34c-3.11-0.08-6.67-1.21-9.17-3.03c-7.59-5.53-14.76-11.63-22.39-17.74
		c44.25-24.63,91.95-24.23,139.49-24.76C366.47,392.34,366.83,392.84,367.19,393.34z M257.39,414.47
		c30.1-3.75,58.61-7.3,87.98-10.97C314.44,394.21,286.31,401.02,257.39,414.47z"/>
	<path class="st0" d="M124.96,411.64c-5.21,1.11-11.72,2.7-18.32,3.82c-5.26,0.89-9.01-1.64-11.01-6.48
		c-7.19-17.42-14.73-34.71-21.29-52.37c-4.41-11.87-7.45-24.26-10.97-36.45c-0.72-2.52-0.82-5.21-1.48-9.73
		c6.82,1.79,12.73,2.54,17.93,4.88c8.93,4.02,17.48,8.92,26.07,13.65c4.24,2.33,4.5,6.68,5,10.97c1.96,17.01,3.68,34.07,6.44,50.95
		C118.45,397.63,122.05,403.94,124.96,411.64z"/>
	<path class="st0" d="M354.08,308.86c-2.29-4.77-1.51-7.21,2.95-9.14c7.76-3.35,15.21-7.44,22.87-11.25
		c2,10.47,5.92,14.84,13.79,15.63c5.94,0.6,11.93-2.93,14.46-8.52c2.76-6.08,0.9-11.31-5.99-17.23
		c17.13-10.37,34.33-20.78,51.75-31.33c3.07,10.53,3.76,22.29,1.37,33.76c-2.3,11.03-6.31,21.71-9.95,32.42
		c-0.48,1.4-3.41,3.18-4.81,2.89c-25.84-5.35-52-6.99-78.31-7.23C359.53,308.84,356.83,308.86,354.08,308.86z"/>
	<path class="st0" d="M52.57,108.96c3.19-4.66,5.97-9.67,9.63-13.93c32.94-38.24,73.48-64.95,122.09-79.08
		c2.57-0.75,6.74,0.08,8.66,1.83c4.04,3.66,3.33,6.5-1.81,8.57c-21.67,8.74-39.63,22.13-53.45,41.06c-1.32,1.81-4.02,3.03-6.32,3.65
		c-24.64,6.65-46.55,18.35-66.19,34.57c-3.03,2.5-7.05,3.81-10.62,5.66C53.9,110.51,53.24,109.73,52.57,108.96z"/>
	<path class="st0" d="M93.02,414.7c-0.17,0.25-0.24,0.46-0.38,0.57c-13.93,11.09-17.28,10.48-26.25-4.71
		c-11.66-19.77-21.88-40.17-29.99-61.73c-7.26-19.29,3.83-29.04,20.69-34.52C64.24,349.35,77.84,382.07,93.02,414.7z"/>
	<path class="st0" d="M207.5,296.96c18.02,3.45,35.4,6.78,53.18,10.18c0,2.08,0,4.09,0,6.67c-29.52,3.61-58.4,9.72-82.94,28.11
		c-15.77-11.17-32.03-45.54-30.2-64.08c6.69,2.64,13.24,5.42,19.92,7.81c6.53,2.33,13.21,4.26,19.43,6.24
		c-2.28,3.4-5.86,6.66-6.61,10.48c-0.72,3.67,0.55,8.5,2.61,11.78c3.75,5.98,13.24,7.37,19.24,3.83
		C209.57,313.6,211.34,307.08,207.5,296.96z"/>
	<path class="st0" d="M361.43,34.82c-3.93-0.25-7.87-0.82-11.79-0.68c-16.91,0.62-33.82,1.5-50.73,2.12
		c-2.18,0.08-4.57-0.39-6.57-1.26c-4.23-1.85-8.27-4.14-12.39-6.24c-17.25-8.8-35.61-10.73-54.61-8.98
		c-5.76,0.53-11.57,0.52-17.33,1.01c-3.54,0.3-5.52-1.02-6.18-4.45c-0.8-4.11,2.12-4.74,5.04-5.48c17.4-4.44,35.14-5.27,52.89-3.76
		c24.98,2.12,49.93,4.85,73.72,13.53c7.78,2.84,15.45,6.01,23.07,9.25c1.97,0.84,3.56,2.55,5.33,3.86
		C361.73,34.1,361.58,34.46,361.43,34.82z"/>
	<path class="st0" d="M115.4,336.75c11.84,8.62,22.41,16.19,32.79,24.02c1.3,0.98,1.95,3.23,2.3,5.02
		c2.43,12.21,4.69,24.45,7.34,38.4c-4.86,1.29-10.77,3.71-16.84,4.28c-9.74,0.9-14.98-2.87-17.5-12.31
		C118.47,377.33,116.8,358.02,115.4,336.75z"/>
	<path class="st0" d="M447.49,350.04c-8.73,13.43-17.3,26.65-25.9,39.86c-0.84,1.29-1.82,2.49-2.72,3.75
		c-5.18,7.27-10.2,8.55-18.36,4.58c-0.82-0.4-1.72-0.95-2.22-1.68c-3.56-5.29-1.95-18.29,2.86-22.48
		c9.74-8.49,19.39-17.1,29.42-25.23C438.09,342.74,438.34,343.03,447.49,350.04z"/>
	<path class="st0" d="M186.25,421.2c-7.62,4.7-14.71,9.69-22.39,13.52c-3.24,1.61-8.3,2.14-11.53,0.78
		c-10.91-4.59-21.37-10.24-31.8-16.24c6.16-3.18,11.14-6.69,18.52-6.39c6.86,0.28,14.06-2.81,20.78-5.29
		c4.54-1.68,16.55,0.32,19.33,4.27C181.14,414.65,183.31,417.33,186.25,421.2z"/>
	<path class="st0" d="M414.03,406.18c15.25-15.19,24.49-33.89,36.53-52.36c5.07,7.77,9.82,14.66,14,21.88
		c0.69,1.19-0.52,4.59-1.89,5.69c-11.27,9.01-22.55,18.03-34.29,26.39C421.06,412.99,419.7,412.32,414.03,406.18z"/>
	<path class="st0" d="M81.28,428.03c5.11-3.08,9.69-5.88,14.34-8.57c0.75-0.43,1.8-0.43,2.72-0.46c0.55-0.02,1.15,0.49,1.67,0.41
		c12.41-1.94,20.91,6.34,30.6,11.56c6.22,3.35,12.64,6.33,19.68,9.83c-9.08,4.67-17.16,9.49-27.59,4.97
		c-11.14-4.82-22.69-8.69-33.98-13.19C86.11,431.54,83.86,429.64,81.28,428.03z"/>
	<path class="st0" d="M156.11,365.81c17.65,9.63,35.31,19.26,53.23,29.03c-12.91,3.6-25.79,8.02-39.66,8.07
		c-4.06,0.01-6.59-1.8-7.55-5.68c-2.53-10.2-5-20.4-7.5-30.61C155.12,366.35,155.62,366.08,156.11,365.81z"/>
	<path class="st0" d="M250.84,492.14c-22.55,1.96-43.84-3.03-65.01-8.73c0.02-0.52,0.04-1.03,0.05-1.55
		c1.34-0.13,2.69-0.35,4.03-0.37c12.92-0.25,25.88-1.15,38.75-0.47C237.13,481.46,244.21,486.69,250.84,492.14z"/>
	<path class="st0" d="M182.57,407.4c11-3.26,21.76-6.23,32.35-9.72c4.13-1.36,6.55-0.13,8.96,3.14
		c-8.82,5.45-17.22,11.15-26.11,15.96C191.52,420.15,186.85,416.85,182.57,407.4z"/>
	<path class="st0" d="M420.93,416.66c17.76-6.82,30.66-19.76,45.67-30.36c-0.89,1.72-1.36,3.98-2.75,5.09
		c-12.03,9.58-24.22,18.97-36.39,28.37C423.73,422.63,422.04,420.61,420.93,416.66z"/>
	<path class="st0" d="M363.53,383.04c9.72-3,17.91-5.53,27.93-8.62c-1.45,5.46-2.21,9.84-3.92,13.81c-0.49,1.12-4.02,1.85-5.75,1.35
		C376.11,387.93,370.62,385.64,363.53,383.04z"/>
	<path d="M257.39,414.47c28.92-13.46,57.05-20.26,87.98-10.97C316,407.17,287.5,410.72,257.39,414.47z"/>
</g>
</svg>
